<?xml version="1.0" encoding="utf-8"?>
<!-- Generator: Adobe Illustrator 21.0.0, SVG Export Plug-In . SVG Version: 6.00 Build 0)  -->
<svg version="1.1" id="Calque_1" xmlns="http://www.w3.org/2000/svg" xmlns:xlink="http://www.w3.org/1999/xlink" x="0px" y="0px"
	 viewBox="0 0 340 187" style="enable-background:new 0 0 340 187;" xml:space="preserve">
<style type="text/css">
	.st0{fill:#E83400;}
</style>
<path d="M16.6,104.4C29.1,94,117.8,74.3,137,77.1c3.4,0.5,0.4,8.7-2,10.9c-4.3,3.9-35.8,3.5-37.9,8.5c-5,11.7,4.3,53.3-5.2,65.6
	c-6.3,8.2-40.5,6.5-42.9-3.1c-2.9-11.8,13.8-44.8,2-52c-4-2.4-20.9,7.1-27.4,6.6C19.9,113.4,13.9,106.7,16.6,104.4z"/>
<g>
	<path d="M87.4,63.6c0,10.7-8.9,16.3-18.8,16.3s-16.9-8.7-16.9-19.4s5.7-15.4,13.2-22.5C78.9,24.8,87.4,52.9,87.4,63.6z"/>
</g>
<g>
	<path class="st0" d="M15,83c14-12.4,112-31,133-28c3.7,0.5-0.3,10.3-3,13c-4.8,4.7-40.4,3.8-43,10c-6,14.4,1.9,67.2-9,82
		c-7.3,9.8-37,9.1-39-3c-2.5-14.9,16.3-61.3,4-71c-4.2-3.3-29,10-36,9C18,94.4,12,85.7,15,83z"/>
	<path class="st0" d="M95,40c0,10.5-8.5,17-19,17s-19-9.5-19-20s6.1-15.1,14-22C86,2,95,29.5,95,40z"/>
</g>
<g>
	<path d="M109.1,121.7c0.2-0.7,0.5-1.4,0.9-2.1c0.4-0.8,0.8-1.5,1.3-2.1c0.5-0.7,1-1.2,1.6-1.6c0.6-0.4,1.2-0.7,1.8-0.7
		c0,0,0.1,0,0.3,0.1c0.1,0,0.2,0.1,0.3,0.2c0.1,0.1,0.2,0.2,0.2,0.3c0,0.1,0,0.2-0.2,0.3c0,0.2-0.1,0.3-0.3,0.3
		c-0.1,0-0.3,0.1-0.4,0.1c-0.1,0-0.2,0-0.3-0.1c-0.8,0.6-1.4,1.4-2,2.4c-0.5,1-1,2.1-1.3,3.3c-0.3,1.2-0.5,2.5-0.6,3.8
		c-0.1,1.3-0.2,2.6-0.1,3.8c0,0.6-0.1,1-0.3,1.1c-0.2,0.1-0.5,0.2-1,0.2c-0.2,0-0.5,0-0.8-0.1c-0.3-0.1-0.5-0.3-0.6-0.7
		c-0.2-0.8-0.4-1.8-0.6-2.8c-0.2-1.1-0.3-2.2-0.4-3.3c-0.1-1.1-0.2-2.3-0.3-3.3c-0.1-1.1-0.1-2.1-0.1-3c0-0.6,0-1.1,0.2-1.5
		c0.1-0.4,0.5-0.6,1-0.6c0.2,0,0.5,0,0.7,0.1c0.3,0.1,0.5,0.3,0.5,0.6c0.1,0.9,0.2,1.8,0.3,2.8C108.9,119.9,109,120.8,109.1,121.7z"
		/>
	<path d="M127.5,128c0.1,0.2,0.2,0.4,0.2,0.6c0.1,0.2,0.1,0.4,0.1,0.5c0,0.2,0,0.4-0.1,0.6c-0.1,0.2-0.2,0.3-0.4,0.3
		c-0.2,0.1-0.3,0.1-0.5,0.2c-0.2,0-0.3,0.1-0.5,0.1c-0.5,0-0.8-0.1-1.1-0.3c-0.2-0.2-0.4-0.5-0.5-0.9c-0.1-0.4-0.2-0.8-0.2-1.3
		c0-0.5-0.1-0.9-0.2-1.4c-0.1,0.6-0.3,1.1-0.5,1.7c-0.2,0.5-0.4,1-0.7,1.5c-0.3,0.4-0.6,0.8-1,1.1c-0.4,0.3-0.8,0.4-1.3,0.4
		c-0.7,0-1.3-0.2-1.8-0.8c-0.5-0.5-0.9-1.2-1.3-2c-0.3-0.8-0.6-1.6-0.8-2.6s-0.3-1.8-0.3-2.5c0-1,0-1.9,0.2-2.9
		c0.2-0.9,0.4-1.8,0.8-2.5c0.4-0.7,0.9-1.3,1.4-1.8c0.6-0.5,1.3-0.7,2.1-0.7c0.5,0,1,0.1,1.6,0.2c0.6,0.2,1.2,0.4,1.7,0.8
		c0.5,0.4,1,0.8,1.4,1.4c0.4,0.6,0.6,1.3,0.6,2c0,0.4,0,0.6-0.1,0.8c-0.1,0.2-0.3,0.3-0.6,0.3l-0.2,0c0.4,1.1,0.7,2.3,0.9,3.4
		C127,125.7,127.2,126.8,127.5,128z M120.8,129.3c0.5-0.8,0.9-1.7,1.1-2.8c0.2-1.1,0.4-2.2,0.6-3.2c0.2-1,0.4-1.9,0.6-2.6
		c0.2-0.7,0.6-1.1,1.2-1.1c0.3,0,0.6,0.1,0.8,0.2c-0.1-0.4-0.3-0.7-0.6-1c-0.3-0.3-0.6-0.6-0.9-0.9c-0.3-0.3-0.7-0.5-1-0.7
		c-0.3-0.2-0.7-0.2-0.9-0.2c-0.1,0-0.2,0-0.3,0.1c-0.1,0-0.2,0-0.3,0c-0.4,0.2-0.8,0.5-1.1,1c-0.3,0.4-0.5,1-0.6,1.5
		c-0.2,0.6-0.3,1.2-0.3,1.8c-0.1,0.6-0.1,1.2-0.1,1.7s0.1,1.1,0.1,1.7c0.1,0.6,0.2,1.2,0.3,1.7c0.1,0.6,0.3,1.1,0.5,1.6
		C120.3,128.5,120.5,128.9,120.8,129.3z"/>
	<path d="M137.3,110.7c0.6,0,1,0.3,1.4,1c0.4,0.7,0.7,1.6,1,2.6c0.3,1.1,0.4,2.3,0.6,3.6c0.1,1.3,0.2,2.6,0.3,3.9
		c0.1,1.3,0.1,2.4,0.2,3.5c0,1.1,0.1,1.8,0.2,2.4c0.1,0.4,0.2,0.9,0.3,1.4c0.1,0.5,0.2,1,0.2,1.4c0,0.1-0.1,0.2-0.2,0.3
		c-0.1,0.1-0.3,0.2-0.4,0.3c-0.1,0.1-0.3,0.1-0.4,0.2c-0.1,0-0.2,0.1-0.3,0.1c-0.4,0-0.7-0.4-1-1.2c-0.2-0.8-0.4-1.9-0.5-3.2
		c-0.1-1.3-0.2-2.6-0.2-4.1s-0.1-2.9-0.3-4.1c-0.1-1.3-0.3-2.3-0.6-3.2s-0.7-1.3-1.2-1.3c-0.5,0-0.9,0.4-1.4,1.3
		c-0.5,0.8-0.9,1.9-1.2,3.2c-0.3,1.3-0.5,2.9-0.6,4.6c-0.1,1.7,0.1,3.4,0.4,5.1c0,0.2,0,0.4-0.2,0.5c-0.1,0.1-0.3,0.2-0.5,0.3
		c-0.2,0.1-0.4,0.1-0.7,0.1c-0.2,0-0.4,0-0.5,0c-0.4,0-0.8-0.2-1-0.6c-0.3-0.4-0.5-0.9-0.7-1.5c-0.2-0.6-0.3-1.3-0.4-2.1
		c-0.1-0.8-0.1-1.5-0.2-2.3c0-0.8-0.1-1.5-0.1-2.1c0-0.7,0-1.2,0-1.6c0-0.2,0-0.5,0-0.8c0-0.3,0.1-0.5,0.1-0.7
		c0.1-0.2,0.2-0.3,0.4-0.5s0.3-0.2,0.5-0.2c0.6,0,1,0,1.3,0.2c0.3,0.2,0.5,0.5,0.5,1l0.1,0.7c0.2-0.6,0.4-1.4,0.7-2.3
		c0.3-0.9,0.6-1.8,1-2.7c0.4-0.8,0.9-1.6,1.4-2.2C136.1,111.1,136.7,110.8,137.3,110.7z"/>
	<path d="M149.7,129.6c0.1,0.2,0.2,0.3,0.4,0.4c0.2,0.1,0.4,0.1,0.7,0.2c0.2,0.1,0.5,0.3,0.7,0.5c0.2,0.2,0.3,0.6,0.3,1.1
		c0,0.5-0.1,0.9-0.2,1.2c-0.2,0.3-0.4,0.5-0.6,0.7c-0.3,0.2-0.6,0.3-0.9,0.3c-0.3,0-0.6,0.1-0.9,0.1c-0.1,0-0.3,0-0.6-0.1
		c-0.3,0-0.4-0.2-0.4-0.5c0-0.3,0.1-0.4,0.2-0.4c0.2,0,0.3-0.1,0.5-0.1c0.3,0,0.7,0,1-0.2c0.4-0.1,0.5-0.5,0.5-1.1
		c0-0.2-0.1-0.5-0.4-0.7c-0.1-0.1-0.3-0.2-0.5-0.3c-0.2-0.1-0.4-0.1-0.6-0.2c-0.2-0.1-0.4-0.2-0.5-0.3c-0.2-0.1-0.3-0.4-0.3-0.7
		c-1.6-0.2-2.7-1-3.6-2.4c-0.8-1.4-1.3-3.2-1.3-5.3c0-1,0-2.1,0.2-3.1c0.2-1.1,0.4-2,0.8-2.9c0.4-0.8,0.9-1.5,1.6-2.1
		c0.6-0.5,1.4-0.8,2.3-0.9c0.4,0,0.8,0,1.3,0.1c0.5,0.1,0.9,0.3,1.3,0.5c0.4,0.3,0.7,0.6,1,1c0.3,0.4,0.4,0.9,0.5,1.6
		c0,0.4-0.1,0.6-0.2,0.8c-0.2,0.1-0.4,0.2-0.6,0.2c-0.2-0.3-0.3-0.5-0.5-0.8c-0.1-0.2-0.3-0.4-0.5-0.7c-0.2-0.2-0.3-0.5-0.5-0.6
		c-0.5-0.6-0.9-0.9-1.3-0.9c-0.4,0-0.7,0.1-1,0.4c-0.3,0.3-0.6,0.8-0.8,1.4c-0.2,0.6-0.4,1.2-0.6,1.9c-0.1,0.7-0.2,1.3-0.3,2
		c-0.1,0.7-0.1,1.2-0.1,1.7c0,0.6,0.1,1.3,0.2,2c0.1,0.8,0.3,1.5,0.6,2.1c0.3,0.7,0.6,1.2,1,1.7c0.4,0.4,0.9,0.7,1.5,0.6
		c0.5,0,1-0.2,1.4-0.6c0.4-0.4,0.8-0.8,1.2-1.2c0.4-0.4,0.8-0.8,1.1-1.2c0.4-0.4,0.8-0.5,1.2-0.6c0.2,0,0.4,0,0.5,0.1
		c0.2,0.1,0.3,0.2,0.3,0.4l0,0.1c-0.2,0.6-0.4,1.2-0.8,1.7c-0.4,0.5-0.8,1-1.3,1.3c-0.5,0.4-1,0.7-1.6,0.9
		C150.6,129.3,150.1,129.5,149.7,129.6C149.6,129.6,149.6,129.6,149.7,129.6z"/>
	<path d="M166.9,126.5c0.1,0.2,0.2,0.4,0.2,0.6c0.1,0.2,0.1,0.4,0.1,0.5c0,0.2,0,0.4-0.1,0.6c-0.1,0.2-0.2,0.3-0.4,0.3
		c-0.2,0.1-0.3,0.1-0.5,0.2c-0.2,0-0.3,0.1-0.5,0.1c-0.5,0-0.8-0.1-1.1-0.3s-0.4-0.5-0.5-0.9c-0.1-0.4-0.2-0.8-0.2-1.3
		c0-0.5-0.1-0.9-0.2-1.4c-0.1,0.6-0.3,1.1-0.5,1.7c-0.2,0.5-0.4,1-0.7,1.5c-0.3,0.4-0.6,0.8-1,1.1c-0.4,0.3-0.8,0.4-1.3,0.4
		c-0.7,0-1.3-0.2-1.8-0.8c-0.5-0.5-0.9-1.2-1.3-2c-0.3-0.8-0.6-1.6-0.8-2.6c-0.2-0.9-0.3-1.8-0.3-2.5c0-1,0-1.9,0.2-2.9
		s0.4-1.8,0.8-2.5c0.4-0.7,0.9-1.3,1.4-1.8c0.6-0.5,1.3-0.7,2.1-0.7c0.5,0,1,0.1,1.6,0.2c0.6,0.2,1.2,0.4,1.7,0.8
		c0.5,0.4,1,0.8,1.4,1.4c0.4,0.6,0.6,1.3,0.6,2c0,0.4,0,0.6-0.1,0.8c-0.1,0.2-0.3,0.3-0.6,0.3l-0.2,0c0.4,1.1,0.7,2.3,0.9,3.4
		C166.4,124.2,166.6,125.4,166.9,126.5z M160.3,127.8c0.5-0.8,0.9-1.7,1.1-2.8c0.2-1.1,0.4-2.2,0.6-3.2c0.2-1,0.4-1.9,0.6-2.6
		c0.2-0.7,0.6-1.1,1.2-1.1c0.3,0,0.6,0.1,0.8,0.2c-0.1-0.4-0.3-0.7-0.6-1c-0.3-0.3-0.6-0.6-0.9-0.9c-0.3-0.3-0.7-0.5-1-0.7
		c-0.3-0.2-0.7-0.2-0.9-0.2c-0.1,0-0.2,0-0.3,0.1c-0.1,0-0.2,0-0.3,0c-0.4,0.2-0.8,0.5-1.1,1c-0.3,0.4-0.5,1-0.6,1.5
		c-0.2,0.6-0.3,1.2-0.3,1.8c-0.1,0.6-0.1,1.2-0.1,1.7c0,0.5,0.1,1.1,0.1,1.7c0.1,0.6,0.2,1.2,0.3,1.7c0.1,0.6,0.3,1.1,0.5,1.6
		C159.7,127,160,127.4,160.3,127.8z"/>
	<path d="M171.8,112.4c0.1,0.1,0.2,0.1,0.3,0.2c0.1,0.1,0.1,0.2,0.1,0.3c0,1.2,0,2.5-0.2,3.7c-0.2,1.2-0.2,2.5-0.2,3.8
		c0,0.4,0.1,0.9,0.1,1.3c0.1,0.4,0.1,0.8,0.2,1.2l0.1,0.6c0,0.1,0,0.2,0,0.3c0,0.1,0,0.2,0.1,0.3c0,0.3-0.1,0.5-0.4,0.5
		c-0.3,0.1-0.5,0.2-0.7,0.2c-0.3,0-0.6-0.1-0.9-0.2c-0.3-0.2-0.5-0.4-0.7-0.8l-0.3-0.6c-0.1-0.3-0.2-0.7-0.2-1.1
		c0-0.4-0.1-0.8-0.1-1.2c0-1.3,0-2.6,0.2-3.9c0.2-1.3,0.3-2.6,0.4-3.8c0-0.3,0.2-0.5,0.5-0.6c0.3-0.1,0.5-0.2,0.8-0.2
		C171.2,112.2,171.5,112.3,171.8,112.4z M171.3,104.7c0.1,0,0.3,0.1,0.5,0.2c0.2,0.1,0.3,0.3,0.3,0.5l0,0c0,0.1-0.1,0.2-0.1,0.4
		c0,0.1,0,0.2-0.1,0.3l0,0c-0.1,0.5-0.2,0.8-0.3,1.1c-0.1,0.3-0.1,0.5-0.2,0.7c-0.1,0.2-0.2,0.3-0.4,0.4c-0.1,0.1-0.3,0.1-0.6,0.1
		c0,0-0.1,0-0.2,0c-0.1,0-0.2,0-0.4-0.1c-0.1,0-0.2-0.1-0.3-0.2c-0.1-0.1-0.1-0.2-0.1-0.3l0-0.4c0-0.7,0.1-1.3,0.3-1.8
		c0.2-0.5,0.6-0.8,1.1-0.8c0.1,0,0.1,0,0.2,0C171.2,104.7,171.3,104.7,171.3,104.7z"/>
	<path d="M178.3,112.1c0.3,0,0.7,0,1.2,0.1c0.5,0.1,1,0.3,1.5,0.5c0.5,0.2,0.9,0.5,1.3,0.9c0.4,0.4,0.6,0.8,0.6,1.3
		c0,0.2-0.1,0.4-0.2,0.6c-0.1,0.2-0.3,0.3-0.4,0.3c-0.3,0-0.6-0.1-0.8-0.4c-0.3-0.2-0.5-0.5-0.8-0.8c-0.3-0.3-0.6-0.5-0.9-0.8
		c-0.3-0.2-0.7-0.4-1-0.3c-0.4,0-0.7,0.2-1,0.5c-0.3,0.3-0.4,0.8-0.4,1.3c0,0.9,0.3,1.7,0.8,2.6c0.5,0.8,1.1,1.7,1.6,2.6
		c0.6,0.9,1.1,1.9,1.7,2.9c0.5,1,0.8,2.1,0.8,3.4c0,0.5,0,1-0.2,1.4c-0.2,0.4-0.4,0.7-0.6,0.9c-0.3,0.2-0.6,0.4-0.9,0.6
		c-0.3,0.1-0.7,0.2-1,0.2c-0.4,0-0.8-0.1-1.3-0.3c-0.5-0.2-1-0.5-1.4-0.8c-0.4-0.4-0.8-0.8-1.1-1.2c-0.3-0.5-0.5-1-0.5-1.5
		c0-0.3,0.1-0.4,0.4-0.5c0.3-0.1,0.5-0.1,0.6-0.1c0.1,0,0.2,0,0.3,0.1c0.1,0.1,0.3,0.1,0.4,0.2c0.1,0.1,0.3,0.1,0.4,0.2
		c0.1,0.1,0.1,0.2,0.1,0.3c0.1,0.2,0.3,0.4,0.5,0.8c0.2,0.3,0.5,0.6,0.7,0.8c0.2,0.2,0.4,0.3,0.6,0.2c0.2-0.1,0.2-0.4,0.2-1
		c0-1.1-0.3-2.1-0.8-3.1c-0.5-0.9-1-1.8-1.6-2.7c-0.6-0.9-1.1-1.8-1.6-2.6c-0.5-0.9-0.8-1.8-0.8-2.8c0-0.6,0.1-1.1,0.3-1.5
		c0.2-0.4,0.5-0.8,0.9-1.1c0.4-0.3,0.8-0.5,1.2-0.6C177.5,112.1,177.9,112.1,178.3,112.1z"/>
	<path d="M196.2,123.8c0.1,0.2,0.3,0.4,0.5,0.6c0.2,0.2,0.3,0.3,0.5,0.3c0.3,0,0.7-0.2,1-0.4c0.4-0.3,0.7-0.6,1-1
		c0.3-0.4,0.5-0.9,0.7-1.5c0.2-0.6,0.3-1.2,0.3-1.7c0-0.5-0.1-1.1-0.2-1.9c-0.1-0.8-0.2-1.5-0.4-2.2c-0.2-0.7-0.4-1.3-0.7-1.8
		c-0.3-0.5-0.7-0.7-1.1-0.7c-0.6,0-1.2,0.4-1.7,1.2c-0.5,0.8-0.9,1.8-1.2,2.9c-0.3,1.1-0.5,2.3-0.7,3.5c-0.1,1.2-0.2,2.2-0.2,3
		c0,0.8,0.1,1.8,0.2,3c0.1,1.2,0.2,2.5,0.4,3.8c0.1,1.3,0.3,2.6,0.4,3.8c0.1,1.2,0.2,2.2,0.2,3c0,0.2,0,0.4-0.2,0.5
		c-0.1,0.1-0.3,0.2-0.4,0.3c-0.2,0.1-0.4,0.1-0.5,0.2c-0.2,0-0.3,0-0.4,0c-0.3,0-0.6,0-0.9-0.1c-0.3-0.1-0.6-0.3-0.7-0.8
		c-0.2-0.7-0.4-1.7-0.6-3c-0.2-1.3-0.4-2.7-0.5-4.3c-0.2-1.6-0.3-3.2-0.5-5c-0.1-1.7-0.3-3.4-0.4-5s-0.2-3.1-0.3-4.4
		c-0.1-1.3-0.1-2.4-0.2-3.2c0-0.7,0.1-1.2,0.2-1.5c0.2-0.3,0.6-0.5,1.1-0.5c0.3,0,0.6,0.1,0.9,0.2c0.3,0.2,0.4,0.5,0.5,1.1
		c0.1,0.8,0.1,1.7,0.2,2.6c0,0.9,0.1,1.8,0.3,2.5c0.2-0.6,0.5-1.2,0.9-1.8c0.3-0.6,0.7-1.1,1.1-1.6c0.4-0.5,0.8-0.9,1.3-1.2
		c0.5-0.3,1-0.5,1.6-0.5c0.8,0,1.5,0.2,2,0.6c0.6,0.4,1,1,1.4,1.6c0.4,0.7,0.7,1.5,0.9,2.3s0.3,1.7,0.3,2.6c0.1,1.4-0.1,2.5-0.3,3.4
		c-0.3,0.9-0.7,1.6-1.2,2.1c-0.5,0.5-1.1,0.9-1.7,1.1s-1.3,0.3-1.9,0.3c-0.6,0-1.1-0.1-1.6-0.4c-0.5-0.3-0.9-0.8-1.1-1.6
		c0-0.2,0.1-0.4,0.4-0.5c0.3-0.1,0.4-0.1,0.6-0.1C195.7,123.4,196,123.5,196.2,123.8z"/>
	<path d="M208.1,113c0.6,0,1.2,0.1,1.8,0.3c0.6,0.2,1.2,0.6,1.7,1c0.5,0.5,1,1,1.3,1.7c0.3,0.7,0.5,1.4,0.6,2.2c0,1-0.1,2-0.3,2.9
		c-0.2,0.9-0.6,1.8-1.1,2.5c-0.5,0.7-1,1.3-1.7,1.8c-0.7,0.4-1.4,0.7-2.2,0.7c-0.6,0-1.2-0.1-1.7-0.4c-0.5-0.3-0.9-0.7-1.3-1.2
		c-0.3-0.5-0.6-1.1-0.8-1.8c-0.2-0.7-0.3-1.5-0.3-2.3c0-0.8,0-1.7,0.1-2.6c0.1-0.9,0.3-1.7,0.7-2.4s0.7-1.3,1.2-1.8
		C206.7,113.3,207.3,113,208.1,113z M208.2,124.6c0.6-0.1,1.1-0.4,1.4-0.8c0.4-0.4,0.7-0.9,0.9-1.5c0.2-0.6,0.4-1.3,0.4-2
		c0.1-0.7,0.1-1.4,0.1-2c0-0.8-0.2-1.5-0.4-2c-0.3-0.5-0.7-0.9-1.2-1.2c0,0,0,0,0,0s0,0,0,0L209,115c-0.1-0.1-0.3-0.1-0.4-0.2
		c-0.2-0.1-0.3-0.2-0.5-0.4c-0.4,0.2-0.7,0.5-1,0.8c-0.2,0.3-0.4,0.7-0.5,1.2c-0.1,0.5-0.2,1-0.2,1.7c0,0.6,0,1.4,0.1,2.3
		c0,0.3,0.1,0.6,0.1,1.2c0.1,0.5,0.2,1,0.3,1.5c0.1,0.5,0.3,0.9,0.5,1.2S208,124.7,208.2,124.6z"/>
	<path d="M226.2,110c-0.1,2.4-0.2,4.9-0.2,7.3c0,2.4,0,4.9,0.1,7.3c0,0.5,0.1,0.9,0.1,1.3c0,0.4,0,0.7,0,1c-0.1,0.3-0.2,0.5-0.4,0.7
		c-0.2,0.2-0.6,0.3-1.1,0.3c-0.1,0-0.3,0-0.4,0c-0.2,0-0.3-0.1-0.5-0.1c-0.2-0.1-0.3-0.1-0.5-0.3c-0.1-0.1-0.2-0.3-0.2-0.5
		c0-1.1-0.1-2.2,0-3.3c0-1.1,0.1-2.2,0.1-3.3c-0.3,0.6-0.6,1.1-0.9,1.7c-0.3,0.6-0.7,1.1-1.1,1.6c-0.4,0.5-0.9,0.8-1.3,1.1
		c-0.5,0.3-1,0.4-1.6,0.5c-0.8,0-1.5-0.2-1.9-0.7c-0.5-0.5-0.9-1.1-1.1-1.8c-0.3-0.7-0.4-1.6-0.5-2.5c-0.1-0.9-0.2-1.8-0.2-2.6
		c0-0.3,0-0.7,0-1.2c0-0.5,0.1-1,0.1-1.4c0-0.5,0.1-0.9,0.2-1.3c0.1-0.4,0.2-0.7,0.3-0.8c0.1-0.1,0.2-0.2,0.4-0.4
		c0.2-0.1,0.4-0.2,0.7-0.3c0.2-0.1,0.5,0,0.7,0c0.2,0.1,0.3,0.3,0.4,0.6c-0.1,0.3-0.3,0.7-0.4,1.3c-0.1,0.6-0.2,1.3-0.2,2.1
		c0,0.8,0,1.6,0,2.4c0,0.8,0.1,1.6,0.3,2.2s0.3,1.2,0.5,1.7c0.2,0.4,0.5,0.6,0.9,0.6c0.8,0,1.4-0.5,2-1.5c0.6-1,1.1-2.1,1.6-3.5
		c0.4-1.4,0.8-2.8,1.1-4.3c0.3-1.5,0.6-2.9,0.8-4c0.1-0.3,0.2-0.6,0.4-0.7c0.2-0.1,0.5-0.2,0.8-0.2c0.3,0,0.5,0.1,0.8,0.2
		C226.1,109.6,226.2,109.8,226.2,110z"/>
	<path d="M231.3,117.1c0.2-0.7,0.5-1.4,0.9-2.1c0.4-0.8,0.8-1.5,1.3-2.1c0.5-0.7,1-1.2,1.6-1.6c0.6-0.4,1.2-0.7,1.8-0.7
		c0,0,0.1,0,0.3,0.1s0.2,0.1,0.3,0.2s0.2,0.2,0.2,0.3c0,0.1,0,0.2-0.2,0.3c0,0.2-0.1,0.3-0.3,0.3c-0.1,0-0.3,0.1-0.4,0.1
		c-0.1,0-0.2,0-0.3-0.1c-0.8,0.6-1.4,1.4-2,2.4c-0.5,1-1,2.1-1.3,3.3c-0.3,1.2-0.5,2.5-0.6,3.8c-0.1,1.3-0.2,2.6-0.1,3.8
		c0,0.6-0.1,1-0.3,1.1c-0.2,0.1-0.5,0.2-1,0.2c-0.2,0-0.5,0-0.8-0.1c-0.3-0.1-0.5-0.3-0.6-0.7c-0.2-0.8-0.4-1.8-0.6-2.8
		c-0.2-1.1-0.3-2.2-0.4-3.3c-0.1-1.1-0.2-2.3-0.3-3.3s-0.1-2.1-0.1-3c0-0.6,0-1.1,0.2-1.5c0.1-0.4,0.5-0.6,1-0.6
		c0.2,0,0.4,0,0.7,0.1s0.5,0.3,0.5,0.6c0.1,0.9,0.2,1.8,0.3,2.8C231.1,115.3,231.2,116.3,231.3,117.1z"/>
	<path d="M252.5,102.9c0.1,0.3,0,0.6-0.3,0.8c-0.3,0.2-0.7,0.3-1.1,0.4c-0.4,0.1-0.8,0.2-1.3,0.2c-0.4,0.1-0.7,0.1-0.8,0.1
		c0,2.5-0.1,5-0.1,7.4c0,2.4,0,4.9,0.1,7.4c0,1.1,0.1,2.3,0.2,3.5c0.1,1.2,0.3,2.3,0.6,3.4c0.1,0.3,0.2,0.6,0.4,0.9
		c0.2,0.3,0.3,0.6,0.3,0.9c0,0.2,0,0.4-0.2,0.5c-0.1,0.1-0.3,0.2-0.4,0.3c-0.2,0.1-0.3,0.1-0.5,0.2c-0.2,0-0.3,0-0.4,0
		c-0.7,0-1.2-0.3-1.6-1c-0.4-0.7-0.7-1.5-0.9-2.4c-0.2-0.9-0.3-1.9-0.4-2.9c0-1-0.1-1.8-0.1-2.4c0-1.3-0.1-2.6-0.1-3.9
		c0-1.3,0-2.7,0-4c0-1.3,0-2.6,0.1-3.8c0.1-1.2,0.1-2.4,0.2-3.5c-0.4,0.1-0.8,0.2-1.1,0.2c-0.4,0.1-0.7,0.1-1.1,0.2
		c-0.1,0-0.2,0-0.4,0c-0.1,0-0.3,0-0.4-0.1c-0.1-0.1-0.3-0.1-0.3-0.2c-0.1-0.1-0.1-0.2-0.2-0.4c0-0.2,0.1-0.4,0.5-0.6
		c0.3-0.2,0.7-0.3,1.1-0.4c0.4-0.1,0.8-0.2,1.2-0.2s0.7-0.1,0.8-0.1c0-0.4,0-0.8,0-1.2c0-0.4,0.1-0.8,0.1-1.1
		c0.1-0.3,0.2-0.6,0.4-0.8c0.2-0.2,0.5-0.3,0.9-0.3c0.3,0,0.6,0,0.7,0.1c0.2,0.1,0.4,0.3,0.5,0.6c0.1,0.2,0.1,0.3,0.1,0.5
		c0,0.2,0,0.5,0,0.7c0,0.3,0,0.5,0,0.7c0.4-0.1,0.8-0.2,1.2-0.2c0.4-0.1,0.8-0.1,1.2-0.2c0.3,0,0.5,0,0.6,0
		C252.3,102.4,252.4,102.6,252.5,102.9z"/>
	<path d="M255.9,111.2c0.6,0,1.2,0.1,1.8,0.3c0.6,0.2,1.2,0.6,1.7,1c0.5,0.5,1,1,1.3,1.7c0.3,0.7,0.5,1.4,0.6,2.2c0,1-0.1,2-0.3,2.9
		c-0.2,0.9-0.6,1.8-1.1,2.5c-0.5,0.7-1,1.3-1.7,1.8c-0.7,0.4-1.4,0.7-2.2,0.7c-0.6,0-1.2-0.1-1.7-0.4c-0.5-0.3-0.9-0.7-1.3-1.2
		c-0.3-0.5-0.6-1.1-0.8-1.8s-0.3-1.5-0.3-2.3c0-0.8,0-1.7,0.1-2.6s0.3-1.7,0.7-2.4c0.3-0.7,0.7-1.3,1.2-1.8
		C254.5,111.5,255.2,111.2,255.9,111.2z M256.1,122.8c0.6-0.1,1.1-0.4,1.4-0.8c0.4-0.4,0.7-0.9,0.9-1.5c0.2-0.6,0.4-1.3,0.4-2
		c0.1-0.7,0.1-1.4,0.1-2c0-0.8-0.2-1.5-0.4-2s-0.7-0.9-1.2-1.2c0,0,0,0,0,0c0,0,0,0,0,0l-0.4-0.1c-0.1-0.1-0.3-0.1-0.4-0.2
		c-0.2-0.1-0.3-0.2-0.5-0.4c-0.4,0.2-0.7,0.5-1,0.8c-0.2,0.3-0.4,0.7-0.5,1.2c-0.1,0.5-0.2,1-0.2,1.7c0,0.6,0,1.4,0.1,2.3
		c0,0.3,0.1,0.6,0.1,1.2c0.1,0.5,0.2,1,0.3,1.5c0.1,0.5,0.3,0.9,0.5,1.2C255.6,122.7,255.8,122.9,256.1,122.8z"/>
	<path d="M274.1,108.2c-0.1,2.4-0.2,4.9-0.2,7.3c0,2.4,0,4.9,0.1,7.3c0,0.5,0.1,0.9,0.1,1.3c0,0.4,0,0.7,0,1
		c-0.1,0.3-0.2,0.5-0.4,0.7c-0.2,0.2-0.6,0.3-1.1,0.3c-0.1,0-0.3,0-0.4,0c-0.2,0-0.3-0.1-0.5-0.1c-0.2-0.1-0.3-0.1-0.5-0.3
		c-0.1-0.1-0.2-0.3-0.2-0.5c0-1.1-0.1-2.2,0-3.3c0-1.1,0.1-2.2,0.1-3.3c-0.3,0.6-0.6,1.1-0.9,1.7c-0.3,0.6-0.7,1.1-1.1,1.6
		c-0.4,0.5-0.9,0.8-1.3,1.1c-0.5,0.3-1,0.4-1.6,0.5c-0.8,0-1.5-0.2-1.9-0.7c-0.5-0.5-0.9-1.1-1.1-1.8c-0.3-0.7-0.4-1.6-0.5-2.5
		c-0.1-0.9-0.2-1.8-0.2-2.6c0-0.3,0-0.7,0-1.2c0-0.5,0.1-1,0.1-1.4c0-0.5,0.1-0.9,0.2-1.3c0.1-0.4,0.2-0.7,0.3-0.8
		c0.1-0.1,0.2-0.2,0.4-0.4c0.2-0.1,0.4-0.2,0.7-0.3s0.5,0,0.7,0c0.2,0.1,0.3,0.3,0.4,0.6c-0.1,0.3-0.3,0.7-0.4,1.3
		c-0.1,0.6-0.2,1.3-0.2,2.1c0,0.8,0,1.6,0,2.4c0,0.8,0.1,1.6,0.3,2.2s0.3,1.2,0.5,1.7c0.2,0.4,0.5,0.6,0.9,0.6c0.8,0,1.4-0.5,2-1.5
		c0.6-1,1.1-2.1,1.6-3.5c0.4-1.4,0.8-2.8,1.1-4.3c0.3-1.5,0.6-2.9,0.8-4c0.1-0.3,0.2-0.6,0.4-0.7c0.2-0.1,0.5-0.2,0.8-0.2
		c0.3,0,0.5,0.1,0.8,0.2C273.9,107.8,274,108,274.1,108.2z"/>
	<path d="M279.9,108.2c0.3,0,0.7,0,1.2,0.1c0.5,0.1,1,0.3,1.5,0.5c0.5,0.2,0.9,0.5,1.3,0.9c0.4,0.4,0.6,0.8,0.6,1.3
		c0,0.2-0.1,0.4-0.2,0.6s-0.3,0.3-0.4,0.3c-0.3,0-0.6-0.1-0.8-0.4c-0.3-0.2-0.5-0.5-0.8-0.8c-0.3-0.3-0.6-0.5-0.9-0.8
		c-0.3-0.2-0.7-0.4-1-0.3c-0.4,0-0.7,0.2-1,0.5c-0.3,0.3-0.4,0.8-0.4,1.3c0,0.9,0.3,1.7,0.8,2.6c0.5,0.8,1.1,1.7,1.6,2.6
		c0.6,0.9,1.1,1.9,1.7,2.9c0.5,1,0.8,2.1,0.8,3.4c0,0.5,0,1-0.2,1.4c-0.2,0.4-0.4,0.7-0.6,0.9c-0.3,0.2-0.6,0.4-0.9,0.6
		c-0.3,0.1-0.7,0.2-1,0.2c-0.4,0-0.8-0.1-1.3-0.3c-0.5-0.2-1-0.5-1.4-0.8c-0.4-0.4-0.8-0.8-1.1-1.2c-0.3-0.5-0.5-1-0.5-1.5
		c0-0.3,0.1-0.4,0.4-0.5c0.3-0.1,0.5-0.1,0.6-0.1c0.1,0,0.2,0,0.3,0.1c0.1,0.1,0.3,0.1,0.4,0.2c0.1,0.1,0.3,0.1,0.4,0.2
		c0.1,0.1,0.1,0.2,0.1,0.3c0.1,0.2,0.3,0.4,0.5,0.8c0.2,0.3,0.5,0.6,0.7,0.8c0.2,0.2,0.4,0.3,0.6,0.2c0.2-0.1,0.2-0.4,0.2-1
		c0-1.1-0.3-2.1-0.8-3.1c-0.5-0.9-1-1.8-1.6-2.7c-0.6-0.9-1.1-1.8-1.6-2.6c-0.5-0.9-0.8-1.8-0.8-2.8c0-0.6,0.1-1.1,0.3-1.5
		c0.2-0.4,0.5-0.8,0.9-1.1c0.4-0.3,0.8-0.5,1.2-0.6C279.2,108.3,279.6,108.3,279.9,108.2z"/>
</g>
</svg>
